<?xml version="1.0" encoding="UTF-8" standalone="no"?>
<!-- Created with Inkscape (http://www.inkscape.org/) -->
<svg xmlns:dc="http://purl.org/dc/elements/1.1/" xmlns:cc="http://creativecommons.org/ns#" xmlns:rdf="http://www.w3.org/1999/02/22-rdf-syntax-ns#" xmlns:svg="http://www.w3.org/2000/svg" xmlns="http://www.w3.org/2000/svg" version="1.1" width="50.481098mm" height="53.091099mm" viewBox="0 0 56.6376 59.5659" id="svg2" xml:space="preserve" style="fill-rule:evenodd"><metadata id="metadata65"><rdf:RDF><cc:Work rdf:about=""><dc:format>image/svg+xml</dc:format><dc:type rdf:resource="http://purl.org/dc/dcmitype/StillImage"/><dc:title/></cc:Work></rdf:RDF></metadata>
 <defs id="defs4">
  <style type="text/css" id="style6"/>
 </defs>
 <g id="Layer_x0020_1">
  <metadata id="CorelCorpID_0Corel-Layer"/>
  <g id="_379384856">
   <path d="m 14.3708,15.7826 0,-4.23348 c 0,0 0.167508,-0.816336 0.71996,-1.17704 0.552339,-0.360709 7.18916,-4.64513 7.46124,-4.83855 0.272075,-0.193425 0.931112,-0.048356 1.15494,-0.169191 0.168518,-0.175025 0.09514,-0.640076 0.432963,-0.88758 l 6.59251,-4.28599 c 0.272523,-0.225513 0.81095,-0.281499 1.05924,4.4878e-4 l 6.92921,6.06305002 c 0.220465,0.202738 0.02726,0.940649 0.199708,1.13228 0.19365,0.21564 1.02143,0.074722 1.2447,0.216089 l 6.92898,6.1588702 c 0.273309,0.320431 0.184113,1.02749 0.384943,1.25121 0.30405,0.329855 1.04342,0.104118 1.44418,0.385729 l 7.50679,6.83272 c 0.225401,0.239874 0.281723,0.866599 0.09615,1.15494 l -8.82991,18.3587 -5.50499,4.15808 c -0.106698,0.07865 -0.422641,0.02008 -0.536183,0.112532 -0.07416,0.06631 0.03355,0.338046 -0.07831,0.424997 l -3.32593,2.64008 0.860316,4.13643 c 0.02098,0.269718 -0.06664,0.539549 -0.197913,0.679008 l -6.8335,5.38977 c -0.468866,0.380456 -0.991698,0.336924 -1.33019,0.08695 l -7.14743,-4.27768 c -0.407495,-0.160776 -0.382924,-0.49871 -0.596657,-0.614047 -0.256143,-0.08807 -0.467968,0.274879 -0.702345,0.132391 l -6.99563,-4.19702 c -0.29328,-0.202177 -0.16504,-0.66532 -0.548637,-0.822394 -0.406261,-0.05801 -0.460339,0.30248 -0.903063,0 l -4.7787499,-2.82015 c -0.171211,-0.08392 -0.386065,-0.319645 -0.481207,-0.577471 l -2.3284,-6.83036 c -0.10984,-0.245821 0.178728,-0.575003 0.101761,-0.799058 -0.051273,-0.213284 -0.483002,-0.386514 -0.577696,-0.68675 l -2.40368,-7.75048 c -0.125547,-0.324806 0.248626,-0.808482 0.168518,-1.11063 -0.193986,-0.406261 -0.63772,-0.221923 -0.831482,-0.628184 l -2.60406,-8.33973 c -0.242118,-0.52171 -0.0917761,-0.981039 0.197913,-1.1886 l 7.69954,-4.8123 c 0.328846,-0.169191 0.729945,-0.120835 1.05879,0 l 4.5235099,1.82879 c 0.401548,0.185235 0.755077,0.177381 0.770111,-0.09638 z" id="_379384688" style="fill:#1a1a1a"/>
   <path d="m 36.1875,16.0302 c 3.11926,2.81813 3.4453,3.4922 -0.215977,0.237967 -3.66128,-3.25435 -4.03366,-4.0405 0.215977,-0.237967 z" id="_379384520" style="fill:#4d4d4d"/>
   <ellipse cx="22.8249" cy="17.6723" rx="0.30270901" ry="0.491833" id="_379384424" style="fill:#808080"/>
   <ellipse cx="40.113899" cy="19.608101" rx="0.30270901" ry="0.491833" id="_379384328" style="fill:#999999"/>
   <path d="m 45.3347,24.2471 c 2.76776,2.50073 3.05711,3.09884 -0.191742,0.211152 -3.24885,-2.88769 -3.57927,-3.58533 0.191742,-0.211152 z" id="_379384160" style="fill:#4d4d4d"/>
   <ellipse cx="49.297001" cy="27.782101" rx="0.30270901" ry="0.491833" id="_379384064" style="fill:#808080"/>
   <ellipse cx="40.568001" cy="34.366699" rx="0.30270901" ry="0.491833" id="_374642888" style="fill:#666666"/>
   <path d="m 37.1101,30.9831 c 2.76787,2.50062 3.05722,3.09873 -0.19163,0.211152 -3.24885,-2.88769 -3.57927,-3.58533 0.19163,-0.211152 z" id="_374642768" style="fill:#666666"/>
   <ellipse cx="31.410101" cy="11.5402" rx="0.30270901" ry="0.491833" id="_374642672" style="fill:#808080"/>
   <path d="m 27.6191,8.12151 c 2.76787,2.50062 3.05722,3.09884 -0.19163,0.211152 C 24.17862,5.444972 23.8482,4.747332 27.6191,8.12151 z" id="_374642504" style="fill:#333333"/>
   <path d="m 19.1702,14.5263 c 2.76787,2.50073 3.05722,3.09884 -0.19163,0.211152 -3.24885,-2.88769 -3.57927,-3.58533 0.19163,-0.211152 z" id="_374642336" style="fill:#333333"/>
   <ellipse cx="23.524" cy="29.458599" rx="0.47542101" ry="0.491833" id="_374642240" style="fill:#808080"/>
   <ellipse cx="14.9664" cy="25.621599" rx="0.30270901" ry="0.491833" id="_374642144" style="fill:#808080"/>
   <ellipse cx="7.0626302" cy="22.266001" rx="0.30270901" ry="0.36135501" id="_374642048" style="fill:#808080"/>
   <ellipse cx="10.1968" cy="32.622799" rx="0.30270901" ry="0.36135501" id="_374641952" style="fill:#666666"/>
   <ellipse cx="26.226101" cy="40.058899" rx="0.39317501" ry="0.406748" id="_374641856" style="fill:#666666"/>
   <ellipse cx="29.1625" cy="50.111" rx="0.39317501" ry="0.406748" id="_374641760" style="fill:#4d4d4d"/>
   <ellipse cx="20.6441" cy="46.25" rx="0.39317501" ry="0.406748" id="_374641664" style="fill:#4d4d4d"/>
   <ellipse cx="12.9133" cy="42.193501" rx="0.248335" ry="0.256908" id="_374641568" style="fill:#333333"/>
   <ellipse cx="18.033899" cy="36.3689" rx="0.30270901" ry="0.36135501" id="_374641472" style="fill:#666666"/>
   <path d="m 19.6118,27.4875 c 2.73084,1.15483 3.10423,1.52844 -0.08886,0.208572 -3.19309,-1.31976 -3.62325,-1.75732 0.08886,-0.208572 z" id="_374641304" style="fill:#666666"/>
   <path d="m 11.2083,24.0807 c 2.73084,1.15483 3.10423,1.52833 -0.08886,0.208572 -3.19309,-1.31987 -3.62325,-1.75732 0.08886,-0.208572 z" id="_374641136" style="fill:#666666"/>
   <path d="m 3.76327,20.8156 c 2.24201,0.948166 2.54852,1.2548 -0.072927,0.171211 -2.62145,-1.08347 -2.97464,-1.44272 0.072927,-0.171211 z" id="_374640896" style="fill:#666666"/>
   <path d="m 16.4977,10.0705 6.22888,-3.94828 c 0.266801,-0.169191 0.637271,-0.144957 0.876921,0.066308 l 6.16066,5.4359904 c 0.23965,0.211377 0.211713,0.569056 -0.04712,0.748906 l -6.13766,4.26635 c -0.258274,0.179401 -0.642096,0.149893 -0.876921,-0.06631 l -6.25188,-5.75407 C 16.21564,10.602971 16.230787,10.239681 16.4977,10.07049 z" id="_210333120" style="fill:#ffff25"/>
   <path d="m 25.1253,4.49389 5.73634,-3.78447 c 0.246718,-0.162796 0.596881,-0.135981 0.820487,0.0620442 l 5.94514,5.26703 c 0.223606,0.198025 0.200718,0.537081 -0.04409,0.700662 l -5.83283,3.9004798 c -0.244138,0.163357 -0.600808,0.140132 -0.820375,-0.06204 l -5.84876,-5.38304 C 24.861418,4.992151 24.878584,4.656686 25.125302,4.49389 z" id="_210332952" style="fill:#2a4bb7"/>
   <path d="m 33.8014,12.2614 5.64546,-3.8298 c 0.244587,-0.16605 0.595647,-0.134523 0.820375,0.062044 l 6.17233,5.4034598 c 0.224728,0.196567 0.195108,0.529003 -0.04409,0.700662 l -5.56031,3.99125 c -0.238528,0.171098 -0.597442,0.136093 -0.820375,-0.06216 l -6.25738,-5.56479 c -0.223157,-0.198362 -0.200606,-0.534612 0.04398,-0.700662 z" id="_210332784" style="fill:#f03031"/>
   <path d="m 42.296,20.0741 5.64546,-4.19331 c 0.237518,-0.176372 0.600247,-0.138786 0.820487,0.06204 l 6.67172,6.08527 c 0.220352,0.20083 0.190396,0.524178 -0.04409,0.700662 l -5.42399,4.0819 c -0.233928,0.176035 -0.59531,0.133064 -0.820375,-0.06204 l -6.8933,-5.97386 c -0.225065,-0.195108 -0.193425,-0.524178 0.04409,-0.700662 z" id="_210332616" style="fill:#2ac44b"/>
   <path d="m 25.0347,18.1212 6.1904,-4.4204 c 0.24066,-0.171772 0.596096,-0.13441 0.820487,0.06204 l 6.58117,5.76686 c 0.224279,0.196455 0.187816,0.5207 -0.04409,0.700662 l -4.56109,3.53697 c -0.231011,0.179177 -0.650286,0.182094 -0.820375,-0.06204 -0.537866,-0.771906 -1.03601,-1.24829 -1.74992,-1.49837 l -4.89016,-1.71356 -1.57052,-1.67149 c -0.204084,-0.217323 -0.196567,-0.52889 0.04409,-0.700662 z" id="_210332448" style="fill:#2a4bb7"/>
   <path d="m 33.7882,26.4178 6.22888,-4.62964 c 0.253562,-0.188489 0.636374,-0.143386 0.877034,0.06631 l 6.75115,5.89039 c 0.24066,0.209806 0.199821,0.55391 -0.04712,0.748906 l -6.09234,4.8114 c -0.246157,0.194323 -0.637832,0.14462 -0.876921,-0.06642 l -6.88769,-6.07203 c -0.239538,-0.211264 -0.20644,-0.56053 0.04701,-0.748906 z" id="_210332280" style="fill:#ffff25"/>
   <path d="m 48.007,30.381 -2.12712,4.73107 c -0.07237,0.161113 -0.139123,0.299338 -0.301694,0.43128 l -5.63851,4.57399 c -0.162684,0.132054 -0.475261,0.05251 -0.428475,-0.108381 l 1.16134,-4.0018 c 0.04656,-0.160328 0.138562,-0.300236 0.301694,-0.43128 l 6.60429,-5.30327 c 0.163469,-0.131157 0.500842,-0.05273 0.428475,0.108381 z" id="_210332112" style="fill:#284299"/>
   <path d="m 55.8655,24.3394 -2.39953,4.77651 c -0.08056,0.160215 -0.137103,0.300909 -0.301806,0.431392 l -5.32077,4.21037 c -0.164815,0.130484 -0.498485,0.05161 -0.428475,-0.108381 l 2.0699,-4.72837 c 0.0699,-0.15943 0.133513,-0.304611 0.301694,-0.43128 l 5.65051,-4.25861 c 0.16863,-0.127006 0.50892,-0.05195 0.428475,0.108381 z" id="_210331944" style="fill:#b3b3b3"/>
   <path d="m 52.6403,31.0624 -2.39987,4.91282 c -0.07843,0.16044 -0.129474,0.306855 -0.301806,0.43128 l -4.63907,3.34747 c -0.172333,0.124537 -0.497588,0.05183 -0.428363,-0.108381 l 1.70638,-3.95636 c 0.069,-0.159767 0.139123,-0.300011 0.301806,-0.43128 l 5.33244,-4.30383 c 0.162796,-0.131493 0.506788,-0.05217 0.428475,0.108269 z" id="_210331776" style="fill:#b3b3b3"/>
   <path d="m 45.2816,36.9221 -2.08157,4.2769 c -0.0782,0.160552 -0.149108,0.292831 -0.301806,0.43128 l -4.44306,3.55728 c -0.152811,0.138562 -0.472456,0.05206 -0.428475,-0.108269 l 0.964995,-3.34859 c 0.04611,-0.159767 0.139347,-0.300348 0.301806,-0.43128 l 5.55963,-4.4857 c 0.16302,-0.131381 0.506676,-0.05217 0.428475,0.108381 z" id="_210331608" style="fill:#1d8a35"/>
   <path d="m 49.3717,37.712 -1.92954,3.77202 c -0.06889,0.134635 -0.110176,0.257265 -0.254011,0.363065 l -4.26837,3.13587 c -0.143835,0.105688 -0.42107,0.04331 -0.360597,-0.09121 l 1.6182,-3.60283 c 0.06025,-0.134186 0.109391,-0.258835 0.254011,-0.363065 l 4.5796,-3.30506 c 0.144732,-0.104342 0.429597,-0.04353 0.360709,0.09122 z" id="_210331440" style="fill:#b34322"/>
   <path d="m 42.5146,42.8856 -1.28161,3.34265 c -0.04106,0.106922 -0.09245,0.197577 -0.199484,0.285089 l -2.57467,2.03242 c -0.106922,0.08751 -0.263996,0.02592 -0.283294,-0.07158 l -0.403792,-2.04544 c -0.01919,-0.09716 0.04241,-0.14821 0.149108,-0.234938 l 4.31045,-3.37978 c 0.108718,-0.08527 0.330865,-0.03489 0.283294,0.07158 z" id="_210331200" style="fill:#b3b31a"/>
   <path d="m 39.572,38.4201 c -0.731965,2.53192 -1.04162,2.90576 -0.215416,-0.05071 0.826321,-2.95658 1.18995,-3.3882 0.215416,0.05071 z" id="_209452024" style="fill:#666666"/>
   <path d="m 27.264,38.6313 6.44497,-4.75519 c 0.254235,-0.187591 0.437563,-0.483788 0.373163,-0.796365 l -1.66745,-7.93852 c -0.0653,-0.312128 -0.384158,-0.446314 -0.675418,-0.32705 l -6.85695,4.9043 c -0.25446,0.182094 -0.43947,0.484461 -0.373163,0.796365 l 2.07943,7.78941 c 0.08101,0.308314 0.421295,0.514754 0.675418,0.32705 z" id="_209447704" style="fill:#ffff25"/>
   <path d="m 30.0561,48.8791 6.1242,-4.53742 c 0.253899,-0.18804 0.437563,-0.483788 0.373163,-0.796365 l -1.76562,-7.40716 c -0.07371,-0.309884 -0.38427,-0.446202 -0.675418,-0.32705 l -6.28621,4.47908 c -0.253899,0.180972 -0.439358,0.484461 -0.373163,0.796365 l 1.92752,7.46561 c 0.07966,0.307977 0.421295,0.514754 0.67553,0.326938 z" id="_206909576" style="fill:#2ac44b"/>
   <path d="m 32.628,58.4922 5.79165,-4.56681 c 0.222147,-0.175137 0.389992,-0.436553 0.332548,-0.718613 l -1.6973,-7.20476 c -0.05374,-0.282509 -0.342533,-0.40267 -0.602042,-0.295075 l -6.06406,4.50421 c -0.224055,0.166386 -0.391563,0.437114 -0.332548,0.718613 l 1.96982,7.26736 c 0.07517,0.276787 0.379895,0.470212 0.60193,0.295075 z" id="_206907728" style="fill:#ffff25"/>
   <path d="m 30.9524,23.2446 -6.93975,4.88534 c -0.229665,0.161786 -0.600696,0.214743 -0.896443,0.112083 l -6.41625,-2.73656 c -0.281723,-0.120162 -0.344329,-0.349602 -0.147537,-0.5299 l 6.52014,-4.60047 c 0.227533,-0.16044 0.601818,-0.215752 0.896443,-0.112083 l 6.83597,2.4517 c 0.29328,0.105352 0.37709,0.368226 0.147425,0.5299 z" id="_209451976" style="fill:#2a4bb7"/>
   <path d="m 21.875,19.8455 -6.55032,4.56109 c -0.216762,0.151015 -0.566925,0.200381 -0.84618,0.104679 L 8.4224,21.956239 C 8.156496,21.844043 8.097369,21.629862 8.283277,21.461456 l 6.15405,-4.29508 c 0.214743,-0.149893 0.568159,-0.201503 0.84618,-0.104679 l 6.45226,2.28902 c 0.276787,0.09828 0.355997,0.343655 0.139235,0.494783 z" id="_209452096" style="fill:#f03031"/>
   <path d="m 13.2373,16.6851 -6.18299,4.22619 c -0.19926,0.136206 -0.516325,0.18243 -0.77056,0.09525 l -4.78806,-1.9632 C 1.251777,18.94349 1.199718,18.746138 1.368909,18.592878 l 6.2585,-4.05666 c 0.202289,-0.131157 0.517334,-0.18344 0.770448,-0.09537 l 4.71267,1.79378 c 0.247728,0.09436 0.326041,0.31426 0.126781,0.450466 z" id="_209452408" style="fill:#ffff25"/>
   <path d="m 16.4346,27.3759 5.95737,2.48053 c 0.226523,0.09436 0.444519,0.389543 0.515427,0.703579 l 1.90003,7.63682 c 0.07809,0.313475 -0.08112,0.500617 -0.304948,0.437451 l -5.74442,-2.76529 c -0.223494,-0.107596 -0.445866,-0.38988 -0.515315,-0.703467 l -2.11309,-7.35207 c -0.08953,-0.31168 0.07831,-0.537305 0.304948,-0.437563 z" id="_209452624" style="fill:#cccccc"/>
   <path d="m 19.8334,38.1659 5.35678,2.57702 c 0.226411,0.108942 0.444519,0.389543 0.515315,0.703579 l 1.94547,7.11646 c 0.08561,0.313138 -0.08101,0.500729 -0.304836,0.437563 l -5.55896,-2.69135 c -0.22383,-0.108381 -0.445866,-0.38988 -0.515315,-0.703467 l -1.74341,-7.00224 c -0.07786,-0.312914 0.07842,-0.537305 0.304948,-0.437563 z" id="_209452768" style="fill:#c02627"/>
   <path d="m 22.3211,47.8096 5.63065,2.75698 c 0.204645,0.100191 0.401773,0.351958 0.465836,0.635813 l 1.79939,7.02356 c 0.07259,0.282958 -0.07326,0.452485 -0.275553,0.39549 l -5.70235,-3.48424 C 24.039252,55.015022 23.836066,54.784909 23.773237,54.50139 l -1.7277,-6.29642 c -0.0773,-0.281836 0.0708,-0.485583 0.275553,-0.395378 z" id="_210579888" style="fill:#2a4bb7"/>
   <path d="m 8.48098,24.0392 5.42679,2.3257 c 0.202738,0.08684 0.397846,0.348592 0.461236,0.629642 l 2.08931,7.29003 c 0.08022,0.279928 -0.07259,0.447997 -0.27286,0.391563 l -5.44833,-2.63716 c -0.199708,-0.09682 -0.398968,-0.348816 -0.461124,-0.62953 l -2.06788,-6.97868 c -0.082576,-0.278918 0.070122,-0.480871 0.27286,-0.391563 z" id="_210580200" style="fill:#2a4bb7"/>
   <path d="m 1.0911,20.8916 5.05228,2.13879 c 0.185011,0.07831 0.362953,0.318075 0.420846,0.574554 l 2.07719,7.10143 c 0.07461,0.255133 -0.066195,0.408953 -0.249074,0.357343 l -4.96937,-2.47055 C 3.240991,28.502737 3.058785,28.274868 3.002126,28.018725 l -2.15999,-6.76989 C 0.7613551,20.995385 0.9060875,20.81015 1.091098,20.891604 z" id="_210580464" style="fill:#229d3c"/>
   <path d="m 11.5011,34.1354 5.43094,2.67968 c 0.213845,0.105464 0.419612,0.367665 0.48648,0.664086 l 1.86413,6.782 c 0.08134,0.295411 -0.07652,0.472568 -0.287782,0.412992 l -5.44968,-2.73645 c -0.21104,-0.106137 -0.420846,-0.368002 -0.48648,-0.664086 l -1.84551,-6.72523 c -0.08078,-0.294626 0.07394,-0.507124 0.287894,-0.412992 z" id="_210580728" style="fill:#c02627"/>
   <path d="m 4.31864,30.6152 4.759,2.31101 c 0.213733,0.103781 0.419612,0.367665 0.48648,0.664086 l 1.83978,6.66532 c 0.08168,0.295411 -0.07652,0.472568 -0.287782,0.412992 l -4.55212,-2.33412 C 6.353519,38.226444 6.14304,37.966374 6.077405,37.67029 l -2.04667,-6.6421 c -0.090317,-0.29328 0.074049,-0.507237 0.287894,-0.412992 z" id="_210581088" style="fill:#2a4bb7"/>
   <path d="m 14.3456,43.8843 5.35061,2.60417 c 0.208123,0.101313 0.408504,0.358016 0.47369,0.646584 l 1.88455,6.5198 c 0.08302,0.287221 -0.0745,0.460114 -0.280265,0.402109 l -5.6164,-3.39369 c -0.203747,-0.123191 -0.409851,-0.358241 -0.47369,-0.646584 l -1.61876,-5.73028 c -0.08089,-0.286436 0.07203,-0.493773 0.280265,-0.402109 z" id="_210581232" style="fill:#cccccc"/>
   <path d="m 7.31426,40.3342 4.47605,2.17783 c 0.213733,0.104005 0.419612,0.367665 0.48648,0.664086 l 1.55694,5.56693 c 0.08258,0.295075 -0.07652,0.472568 -0.287782,0.412992 l -4.21946,-2.517 C 9.11758,46.514276 8.905642,46.271036 8.840008,45.97484 l -1.81364,-5.22765 c -0.100864,-0.290923 0.074049,-0.507237 0.287894,-0.412992 z" id="_210581520" style="fill:#ffff25"/>
   <path d="m 27.7178,26.8003 c -2.75642,1.86671 -3.33648,1.99013 -0.142152,-0.211152 3.19421,-2.20128 3.86918,-2.33917 0.142152,0.211152 z" id="_210581592" style="fill:#666666"/>
  </g>
 </g>
</svg>