<svg width="375" height="375" xmlns="http://www.w3.org/2000/svg">
 <metadata id="metadata1318">image/svg+xml</metadata>
 <g>
  <title>Layer 1</title>
  <text xml:space="preserve" text-anchor="middle" font-family="serif" font-size="39" id="svg_1" y="94" x="272" stroke-width="0" stroke="#000000" fill="#000000">RIVIERA</text>
  <g id="layer1">
   <g id="g8">
    <path fill="#060656" id="path10" d="m295.034943,285.895721l8.545837,0c0,25.004425 -4.035522,43.203888 -12.106598,54.598297c-8.071045,11.39444 -18.278564,17.091644 -30.622528,17.091644c-9.970123,0 -19.544617,-3.718994 -28.723465,-11.157043c-9.178848,-7.438019 -17.408157,-27.615662 -24.687943,-60.532898l-20.415024,-92.105011l-70.740425,160.471588l-44.865578,0l101.600357,-218.868042c-5.380707,-28.327812 -11.869202,-49.296768 -19.4655,-62.906761c-7.596283,-13.610001 -17.012512,-20.415028 -28.248688,-20.415028c-9.020592,0 -16.854263,3.402485 -23.501015,10.207512c-6.646751,6.805027 -10.444901,17.487309 -11.394432,32.046841l-8.54583,0c0.47477,-23.263634 5.143318,-41.858692 14.005661,-55.78524c8.862335,-13.926548 19.940254,-20.968901 33.233757,-21.127176c8.545822,0 16.616882,3.481651 24.213165,10.444897c7.596298,6.963243 14.243042,18.990721 19.940262,36.082369c5.69722,17.091648 14.480423,52.38274 26.349625,105.873257l16.854263,75.250732c6.805008,31.176437 13.926529,51.987106 21.364563,62.431992c7.438019,10.444885 16.458618,15.74646 27.061768,15.904724c17.72467,0 27.773926,-12.502228 30.147766,-37.506653z"/>
   </g>
  </g>
  <text font-style="italic" xml:space="preserve" text-anchor="middle" font-family="serif" font-size="29" id="svg_2" y="146" x="288" stroke-width="0" stroke="#000000" fill="#000000">Scala Clojure</text>
 </g>
</svg>